<?xml version="1.0" encoding="utf-8"?>
<svg xmlns="http://www.w3.org/2000/svg" style="margin: auto; background: rgb(255, 251, 243); display: block; shape-rendering: auto; animation-play-state: running; animation-delay: 0s;" width="280" height="250" preserveAspectRatio="xMidYMid">
<style type="text/css" style="animation-play-state: running; animation-delay: 0s;">
  text {
    text-anchor: middle; font-size: 53px; opacity: 0;
  }
</style>
<g style="transform-origin: 140px 125px; transform: scale(0.6625); animation-play-state: running; animation-delay: 0s;">
<g transform="translate(140,125)" style="animation-play-state: running; animation-delay: 0s;">
  <g transform="translate(0,0)" style="animation-play-state: running; animation-delay: 0s;"><g class="path" style="transform: scale(0.91); transform-origin: -180.16px -6.1034px; animation: 0.362319s linear -0.209239s infinite normal forwards running breath-b90adce9-2433-47a2-9ffb-044b87d1fe05;"><path d="M23.44 0.88L23.44 0.88L23.44 0.88Q14.56 0.88 8.48-6.56L8.48-6.56L8.48-6.56Q2.40-14 2.40-24.80L2.40-24.80L2.40-24.80Q2.40-38 9.72-47.04L9.72-47.04L9.72-47.04Q17.04-56.08 27.68-56.08L27.68-56.08L27.68-56.08Q31.84-56.08 35.40-55.24L35.40-55.24L35.40-55.24Q38.96-54.40 40.48-53.52L40.48-53.52L41.92-52.64L36.48-41.52L36.48-41.52Q34.64-43.12 31.28-44.52L31.28-44.52L31.28-44.52Q27.92-45.92 25.20-45.92L25.20-45.92L25.20-45.92Q19.68-45.92 16.36-41.36L16.36-41.36L16.36-41.36Q13.04-36.80 13.04-28.36L13.04-28.36L13.04-28.36Q13.04-19.92 16.48-14.52L16.48-14.52L16.48-14.52Q19.92-9.12 25.84-9.12L25.84-9.12L25.84-9.12Q29.68-9.12 32.80-11.52L32.80-11.52L32.80-11.52Q35.92-13.92 37.20-17.92L37.20-17.92L43.84-14.08L43.84-14.08Q41.20-7.04 35.76-3.08L35.76-3.08L35.76-3.08Q30.32 0.88 23.44 0.88" fill="#51cacc" stroke="none" stroke-width="none" transform="translate(-203.27997398376465,21.496601877212523)" style="fill: rgb(81, 202, 204); animation-play-state: running; animation-delay: 0s;"></path></g><g class="path" style="transform: scale(0.91); transform-origin: -131.6px -6.3034px; animation: 0.362319s linear -0.179348s infinite normal forwards running breath-b90adce9-2433-47a2-9ffb-044b87d1fe05;"><path d="M81.52-53.60L92.88-55.60L91.76-20.80L92.72 0L81.52 0L82.48-19.44L82.32-23.68L60.80-23.68L60.72-20.80L61.68 0L50.48 0L51.44-19.44L50.48-53.60L61.84-55.60L61.04-32.16L82.08-32.16L81.52-53.60" fill="#51cacc" stroke="none" stroke-width="none" transform="translate(-203.27997398376465,21.496601877212523)" style="fill: rgb(157, 248, 113); animation-play-state: running; animation-delay: 0s;"></path></g><g class="path" style="transform: scale(0.91); transform-origin: -78.28px -6.1434px; animation: 0.362319s linear -0.149457s infinite normal forwards running breath-b90adce9-2433-47a2-9ffb-044b87d1fe05;"><path d="M149.52-1.36L138 0.40L134.08-15.20L114.96-15.20L110.72 0L100.48-0.80L107.52-20.24L118.24-54.64L132.56-55.68L142.88-21.44L149.52-1.36zM131.68-23.68L125.36-45.28L124.32-45.28L117.44-23.68L131.68-23.68" fill="#51cacc" stroke="none" stroke-width="none" transform="translate(-203.27997398376465,21.496601877212523)" style="fill: rgb(224, 255, 119); animation-play-state: running; animation-delay: 0s;"></path></g><g class="path" style="transform: scale(0.91); transform-origin: -33.12px -6.1034px; animation: 0.362319s linear -0.119565s infinite normal forwards running breath-b90adce9-2433-47a2-9ffb-044b87d1fe05;"><path d="M164.88-47.12L150.72-46L151.60-55.20L189.60-55.20L188.72-46L174.80-47.20L174.48-20.80L175.44 0L164.24 0L165.20-19.44L164.88-47.12" fill="#51cacc" stroke="none" stroke-width="none" transform="translate(-203.27997398376465,21.496601877212523)" style="fill: rgb(222, 157, 214); animation-play-state: running; animation-delay: 0s;"></path></g><g class="path" style="transform: scale(0.91); transform-origin: 24.12px -5.6634px; animation: 0.362319s linear -0.0896739s infinite normal forwards running breath-b90adce9-2433-47a2-9ffb-044b87d1fe05;"><path d="M222.64-21.28L222.64-21.28L218.08-21.28L218.08-20.80L219.04 0L208.32 0L209.28-19.44L208.32-55.20L225.68-55.20L225.68-55.20Q233.36-55.20 237.92-51.04L237.92-51.04L237.92-51.04Q242.48-46.88 242.48-40L242.48-40L242.48-40Q242.48-34.80 239.80-30.52L239.80-30.52L239.80-30.52Q237.12-26.24 232.56-23.76L232.56-23.76L246.48-4.08L236.80 0.88L224.32-21.36L224.32-21.36Q223.76-21.28 222.64-21.28zM222.80-47.12L222.80-47.12L218.88-47.12L218.32-29.04L223.76-29.04L223.76-29.04Q227.76-29.04 229.96-31.68L229.96-31.68L229.96-31.68Q232.16-34.32 232.16-39.20L232.16-39.20L232.16-39.20Q232.16-47.12 222.80-47.12" fill="#51cacc" stroke="none" stroke-width="none" transform="translate(-203.27997398376465,21.496601877212523)" style="fill: rgb(255, 112, 142); animation-play-state: running; animation-delay: 0s;"></path></g><g class="path" style="transform: scale(0.91); transform-origin: 71.4px -6.0634px; animation: 0.362319s linear -0.0597826s infinite normal forwards running breath-b90adce9-2433-47a2-9ffb-044b87d1fe05;"><path d="M277.04-56L277.04-56L277.04-56Q286.48-56 292.60-48.80L292.60-48.80L292.60-48.80Q298.72-41.60 298.72-30.48L298.72-30.48L298.72-30.48Q298.72-16.40 291.44-7.76L291.44-7.76L291.44-7.76Q284.16 0.88 272.32 0.88L272.32 0.88L272.32 0.88Q263.12 0.88 256.88-6.52L256.88-6.52L256.88-6.52Q250.64-13.92 250.64-24.80L250.64-24.80L250.64-24.80Q250.64-38.40 258.08-47.20L258.08-47.20L258.08-47.20Q265.52-56 277.04-56zM287.84-26L287.84-26L287.84-26Q287.84-46.24 274.56-46.24L274.56-46.24L274.56-46.24Q268.48-46.24 265-41.72L265-41.72L265-41.72Q261.52-37.20 261.52-28.20L261.52-28.20L261.52-28.20Q261.52-19.20 265.24-13.40L265.24-13.40L265.24-13.40Q268.96-7.60 275.08-7.60L275.08-7.60L275.08-7.60Q281.20-7.60 284.52-12.52L284.52-12.52L284.52-12.52Q287.84-17.44 287.84-26" fill="#51cacc" stroke="none" stroke-width="none" transform="translate(-203.27997398376465,21.496601877212523)" style="fill: rgb(81, 202, 204); animation-play-state: running; animation-delay: 0s;"></path></g><g class="path" style="transform: scale(0.91); transform-origin: 124.28px -6.0634px; animation: 0.362319s linear -0.0298913s infinite normal forwards running breath-b90adce9-2433-47a2-9ffb-044b87d1fe05;"><path d="M329.92-56L329.92-56L329.92-56Q339.36-56 345.48-48.80L345.48-48.80L345.48-48.80Q351.60-41.60 351.60-30.48L351.60-30.48L351.60-30.48Q351.60-16.40 344.32-7.76L344.32-7.76L344.32-7.76Q337.04 0.88 325.20 0.88L325.20 0.88L325.20 0.88Q316 0.88 309.76-6.52L309.76-6.52L309.76-6.52Q303.52-13.92 303.52-24.80L303.52-24.80L303.52-24.80Q303.52-38.40 310.96-47.20L310.96-47.20L310.96-47.20Q318.40-56 329.92-56zM340.72-26L340.72-26L340.72-26Q340.72-46.24 327.44-46.24L327.44-46.24L327.44-46.24Q321.36-46.24 317.88-41.72L317.88-41.72L317.88-41.72Q314.40-37.20 314.40-28.20L314.40-28.20L314.40-28.20Q314.40-19.20 318.12-13.40L318.12-13.40L318.12-13.40Q321.84-7.60 327.96-7.60L327.96-7.60L327.96-7.60Q334.08-7.60 337.40-12.52L337.40-12.52L337.40-12.52Q340.72-17.44 340.72-26" fill="#51cacc" stroke="none" stroke-width="none" transform="translate(-203.27997398376465,21.496601877212523)" style="fill: rgb(157, 248, 113); animation-play-state: running; animation-delay: 0s;"></path></g><g class="path" style="transform: scale(0.91); transform-origin: 180.8px -6.3834px; animation: 0.362319s linear 0s infinite normal forwards running breath-b90adce9-2433-47a2-9ffb-044b87d1fe05;"><path d="M373.52-55.76L383.60-24.96L384.40-24.96L396.08-55.36L407.12-55.04L407.44-20.64L408.96 0L398.16 0L398.56-20.80L397.68-41.84L388.08-15.36L378.24-14.88L369.28-41.84L368.56-20.80L369.12 0L359.20 0L360.32-19.44L360.80-53.76L373.52-55.76" fill="#51cacc" stroke="none" stroke-width="none" transform="translate(-203.27997398376465,21.496601877212523)" style="fill: rgb(224, 255, 119); animation-play-state: running; animation-delay: 0s;"></path></g></g>
</g>
</g>
<style id="breath-b90adce9-2433-47a2-9ffb-044b87d1fe05" data-anikit="">@keyframes breath-b90adce9-2433-47a2-9ffb-044b87d1fe05
{
  0% {
    animation-timing-function: cubic-bezier(0.9647,0.2413,-0.0705,0.7911);
    transform: scale(0.9099999999999999);
  }
  51% {
    animation-timing-function: cubic-bezier(0.9226,0.2631,-0.0308,0.7628);
    transform: scale(1.02994);
  }
  100% {
    transform: scale(0.9099999999999999);
  }
}</style></svg>